# xmcd
#
# Track frame offsets:
#	150
#	15695
#	50020
#	90425
#	122282
#	155125
#	193180
#	217817
#	251667
#
# Disc length: 3779 seconds
#
# Revision: 1
# Processed by: cddbd v1.4b42PL1 Copyright (c) Steve Scherf et al.
# Submitted via: audiograbber 1.80
#
DISCID=730ec109
DTITLE=Pranavallabha - Olde Plum Chutney
DYEAR=1900
DGENRE=
TTITLE0=Hare Krishna's Where it's at
TTITLE1=Sir Guru Vandanam
TTITLE2=Jiv Jago
TTITLE3=Listen
TTITLE4=Kali's Song
TTITLE5=Material Life
TTITLE6=Prasadam Song
TTITLE7=Bottom Line
TTITLE8=Listen Instrumental
EXTD=
EXTT0=
EXTT1=
EXTT2=
EXTT3=
EXTT4=
EXTT5=
EXTT6=
EXTT7=
EXTT8=
PLAYORDER=
